<?xml version="1.0" standalone="no"?>
<!DOCTYPE svg PUBLIC "-//W3C//DTD SVG 20010904//EN"
 "http://www.w3.org/TR/2001/REC-SVG-20010904/DTD/svg10.dtd">
<svg version="1.0" xmlns="http://www.w3.org/2000/svg"
 width="16.000000pt" height="16.000000pt" viewBox="0 0 16.000000 16.000000"
 preserveAspectRatio="xMidYMid meet">
<metadata>
Created by potrace 1.11, written by Peter Selinger 2001-2013
</metadata>
<g transform="translate(0.000000,16.000000) scale(0.002667,-0.002667)"
fill="#000000" stroke="none">
<path d="M0 3000 l0 -3000 3000 0 3000 0 0 3000 0 3000 -3000 0 -3000 0 0
-3000z m3185 2814 c316 -150 867 -262 1425 -290 69 -3 134 -8 145 -9 11 -2 53
-4 92 -4 l73 -1 32 -62 c127 -246 202 -489 239 -768 61 -470 -42 -935 -305
-1369 -31 -52 -53 -97 -49 -101 5 -4 37 -29 73 -55 85 -64 232 -206 282 -273
22 -30 38 -55 36 -57 -1 -1 -102 -6 -223 -9 -121 -4 -245 -9 -275 -12 l-56 -5
-28 -77 c-61 -165 -109 -282 -115 -282 -3 0 -19 18 -34 40 -16 22 -59 65 -97
96 l-69 55 -113 -97 c-301 -258 -638 -479 -1026 -676 l-194 -97 -89 44 c-49
25 -89 47 -89 49 0 3 26 3 58 0 l57 -4 -47 15 c-27 9 -48 20 -48 25 0 6 -11
10 -25 10 -14 0 -25 4 -25 9 0 4 24 7 53 5 36 -2 43 -1 23 4 -33 8 -37 22 -9
33 14 6 12 8 -10 8 -16 1 -26 -3 -22 -9 3 -5 1 -10 -4 -10 -22 0 -11 39 12 43
15 3 12 5 -11 6 -23 1 -31 -3 -26 -11 5 -8 -2 -9 -24 -5 -26 5 -30 4 -25 -10
4 -10 2 -14 -4 -10 -13 8 -22 -12 -15 -31 2 -7 22 -22 43 -33 22 -11 39 -22
39 -25 0 -9 -250 122 -375 197 -263 157 -505 330 -732 525 l-43 37 -54 -43
c-30 -23 -71 -62 -92 -87 -20 -24 -40 -41 -44 -36 -4 4 -38 101 -74 215 l-66
207 -33 6 c-17 3 -119 19 -226 35 -106 16 -196 32 -200 36 -8 8 133 141 218
204 l70 52 -41 61 c-110 169 -243 495 -288 706 -67 314 -62 650 14 966 56 231
198 565 240 565 85 1 406 23 574 40 387 39 694 100 956 190 118 41 281 117
345 162 l34 24 51 -34 c28 -19 92 -54 141 -78z m-3155 -134 c0 -5 -5 -10 -11
-10 -5 0 -7 5 -4 10 3 6 8 10 11 10 2 0 4 -4 4 -10z m470 -10 c0 -5 -4 -10
-10 -10 -5 0 -10 5 -10 10 0 6 5 10 10 10 6 0 10 -4 10 -10z m-230 -30 c0 -5
-2 -10 -4 -10 -3 0 -8 5 -11 10 -3 6 -1 10 4 10 6 0 11 -4 11 -10z m65 -60 c3
-5 1 -10 -4 -10 -6 0 -11 5 -11 10 0 6 2 10 4 10 3 0 8 -4 11 -10z m-265 -140
c0 -5 -2 -10 -4 -10 -3 0 -8 5 -11 10 -3 6 -1 10 4 10 6 0 11 -4 11 -10z m530
-70 c0 -5 -2 -10 -4 -10 -3 0 -8 5 -11 10 -3 6 -1 10 4 10 6 0 11 -4 11 -10z
m-30 -94 c0 -3 -4 -8 -10 -11 -5 -3 -10 -1 -10 4 0 6 5 11 10 11 6 0 10 -2 10
-4z m-205 -126 c3 -5 1 -10 -4 -10 -6 0 -11 5 -11 10 0 6 2 10 4 10 3 0 8 -4
11 -10z m-225 -40 c0 -5 -5 -10 -11 -10 -5 0 -7 5 -4 10 3 6 8 10 11 10 2 0 4
-4 4 -10z m-40 -30 c0 -5 -5 -10 -11 -10 -5 0 -7 5 -4 10 3 6 8 10 11 10 2 0
4 -4 4 -10z m400 0 c0 -5 -4 -10 -10 -10 -5 0 -10 5 -10 10 0 6 5 10 10 10 6
0 10 -4 10 -10z m70 -70 c0 -5 -5 -10 -11 -10 -5 0 -7 5 -4 10 3 6 8 10 11 10
2 0 4 -4 4 -10z m-343 -202 c-3 -8 -6 -5 -6 6 -1 11 2 17 5 13 3 -3 4 -12 1
-19z m143 2 c0 -5 -2 -10 -4 -10 -3 0 -8 5 -11 10 -3 6 -1 10 4 10 6 0 11 -4
11 -10z m-166 -102 c-3 -4 -9 -8 -15 -8 -5 0 -9 4 -9 8 0 5 7 9 15 9 8 0 12
-4 9 -9z m-4 -198 c0 -5 -2 -10 -4 -10 -3 0 -8 5 -11 10 -3 6 -1 10 4 10 6 0
11 -4 11 -10z m772 -3339 c16 -2 35 -56 27 -76 l-8 -20 -1 20 c-2 11 -2 24 0
30 1 5 -8 1 -20 -10 -14 -13 -23 -16 -28 -8 -4 6 -16 13 -27 15 -11 1 -23 8
-27 13 -5 6 -8 5 -8 -2 0 -7 -5 -13 -11 -13 -5 0 -8 4 -5 9 9 15 -43 9 -56 -6
-9 -11 -9 -16 1 -23 8 -5 11 -16 6 -30 -5 -15 -4 -20 4 -16 6 4 11 0 11 -8 0
-9 -4 -16 -10 -16 -6 0 -5 -10 2 -25 16 -36 -2 -53 -33 -31 -13 9 -17 16 -10
16 11 0 11 3 1 15 -10 12 -10 18 1 32 8 9 9 14 3 10 -8 -4 -12 11 -12 48 -1
75 17 87 118 81 41 -2 78 -4 82 -5z m327 -9 c5 -9 2 -27 -7 -44 -12 -25 -12
-32 -1 -39 11 -6 9 -12 -6 -30 -11 -12 -14 -19 -6 -14 11 6 13 4 8 -8 -3 -10
-3 -17 1 -17 17 0 6 -60 -13 -75 -11 -9 -14 -14 -7 -10 25 13 35 -8 11 -22
-13 -8 -16 -12 -6 -9 9 3 17 1 17 -4 0 -6 -6 -10 -12 -10 -8 0 -9 -3 -3 -8 6
-4 10 -19 10 -34 -1 -16 3 -28 8 -28 4 0 6 -8 3 -18 -4 -12 4 -28 24 -47 16
-16 30 -34 30 -39 0 -6 -4 -5 -9 2 -4 7 -12 12 -17 11 -23 -4 -36 2 -30 16 7
20 -1 19 -26 -5 -23 -21 -68 -27 -68 -10 0 6 5 10 12 10 6 0 9 3 5 6 -3 4 0
13 8 21 8 8 15 29 15 47 0 17 6 38 13 45 10 11 10 13 0 7 -8 -4 -13 -1 -13 8
0 17 -40 13 -95 -9 -25 -10 -31 -18 -30 -41 1 -16 -4 -36 -10 -44 -7 -8 -15
-23 -18 -33 -6 -15 -3 -17 15 -11 21 6 21 6 4 -11 -14 -14 -15 -20 -4 -26 10
-7 9 -12 -6 -26 -10 -10 -15 -12 -11 -4 6 10 4 13 -7 8 -14 -5 -16 19 -15 204
0 115 4 209 8 209 5 0 9 5 9 11 0 5 -4 8 -10 4 -16 -10 -2 59 15 71 25 18 204
15 214 -4z m291 -16 c27 -25 60 -31 60 -11 0 7 7 18 15 25 13 11 15 8 15 -19
0 -20 -5 -31 -14 -31 -8 0 -15 -14 -18 -35 -4 -36 7 -49 15 -17 4 13 5 11 6
-5 0 -13 -4 -23 -10 -23 -8 0 -7 -6 2 -17 8 -10 9 -14 2 -10 -8 5 -11 1 -10
-12 1 -13 5 -17 12 -11 6 5 11 0 11 -16 1 -13 -2 -24 -8 -24 -5 0 -6 5 -3 10
3 6 -1 10 -9 10 -9 0 -16 -4 -16 -9 0 -12 26 -32 33 -25 3 4 5 -3 4 -14 0 -11
-5 -18 -9 -16 -10 6 -11 -10 -1 -20 12 -12 14 -54 3 -61 -8 -5 -7 -11 1 -22
10 -12 10 -16 -2 -24 -8 -5 -9 -9 -3 -9 14 0 13 -72 -1 -82 -6 -5 -5 -8 3 -8
6 0 12 -7 12 -15 0 -8 -7 -15 -16 -15 -8 0 -12 4 -9 10 3 6 2 10 -4 10 -21 0
-30 72 -28 237 1 94 0 170 -3 168 -3 -2 -6 9 -5 23 0 22 -5 28 -27 30 -23 3
-28 -1 -28 -17 0 -23 -25 -29 -33 -8 -4 9 -6 9 -6 -1 -1 -8 8 -16 19 -19 25
-7 26 -23 3 -23 -13 0 -15 -2 -5 -8 19 -12 25 -75 7 -68 -8 3 -17 0 -21 -6 -4
-6 -3 -8 3 -5 6 4 13 0 16 -7 3 -8 1 -17 -6 -20 -7 -2 -4 -5 6 -5 19 -1 24
-21 5 -21 -9 0 -8 -4 2 -10 13 -8 12 -10 -3 -10 -10 0 -15 -5 -12 -10 4 -6 12
-7 18 -3 7 4 5 -2 -3 -12 -9 -11 -10 -16 -2 -11 19 12 15 -54 -5 -78 -17 -20
-17 -20 -1 -7 16 12 18 11 16 -13 -2 -16 -7 -25 -15 -22 -7 3 -10 -1 -7 -8 5
-13 -35 -31 -45 -21 -2 3 0 5 5 5 7 0 11 254 5 368 -1 24 -29 30 -49 10 -8 -8
-15 -8 -24 -1 -9 8 -16 7 -25 -2 -25 -27 19 -35 49 -8 11 10 18 12 18 4 0 -6
-7 -14 -15 -17 -8 -4 -15 -14 -15 -23 0 -9 -6 -23 -12 -30 -10 -11 -10 -13 0
-7 19 11 14 -21 -5 -34 -17 -11 -17 -11 1 -6 13 5 17 2 13 -8 -3 -8 -1 -17 6
-20 7 -2 4 -5 -5 -5 -21 -1 -25 -21 -4 -21 8 0 13 -9 12 -24 0 -13 -3 -23 -5
-21 -1 2 -14 0 -27 -5 -23 -9 -24 -8 -24 29 0 22 6 42 13 44 7 3 5 6 -6 6 -15
1 -16 4 -6 22 6 12 7 19 2 16 -12 -8 -14 105 -1 120 7 9 7 13 -1 13 -6 0 -11
14 -11 30 0 36 6 37 37 8 20 -18 66 -38 49 -20 -3 3 4 16 16 30 28 29 69 24
108 -12z m300 24 c-9 -6 -10 -10 -3 -10 6 0 14 4 18 9 8 15 55 8 65 -9 7 -10
10 -11 10 -2 0 6 5 12 11 12 5 0 2 -14 -8 -30 -10 -18 -23 -28 -31 -25 -8 3
-27 5 -43 5 -21 0 -28 4 -23 12 5 8 2 9 -12 4 -10 -5 -27 -11 -37 -13 -13 -4
-17 -13 -15 -32 2 -14 -4 -33 -12 -41 -9 -8 -11 -12 -6 -7 18 13 21 7 24 -45
1 -28 4 -53 5 -55 2 -1 26 -4 54 -5 40 -2 49 -6 41 -16 -6 -7 -13 -10 -16 -7
-3 3 -11 0 -18 -6 -8 -6 -20 -9 -28 -6 -21 8 -54 -24 -49 -48 2 -11 6 -33 9
-49 6 -39 7 -41 68 -41 l52 0 -2 43 c-4 53 9 54 25 1 7 -23 15 -47 17 -54 7
-17 -50 -39 -82 -31 -15 4 -32 2 -40 -5 -10 -8 -14 -8 -14 0 0 7 -15 10 -45 7
-25 -2 -45 0 -45 6 0 5 -5 6 -11 2 -8 -4 -7 -9 2 -15 7 -4 10 -12 5 -16 -5 -4
-11 -2 -13 5 -3 6 -9 10 -14 6 -17 -10 -9 7 16 34 25 26 25 30 25 193 0 163
-1 166 -25 195 -14 16 -25 32 -25 35 0 4 42 7 93 7 61 1 87 -2 77 -8z m515 0
c-3 -6 0 -7 10 -4 10 4 23 -4 38 -22 29 -37 35 -158 9 -189 -16 -18 -16 -19 1
-6 15 12 17 11 17 -8 0 -15 -7 -21 -22 -22 l-23 -2 23 -4 c26 -5 28 -16 7 -33
-8 -7 -15 -16 -15 -21 0 -5 7 -9 15 -9 8 0 15 -7 15 -16 0 -11 -6 -14 -17 -10
-17 6 -17 5 0 -8 18 -14 23 -46 7 -46 -5 0 -10 5 -10 11 0 5 -4 7 -10 4 -19
-12 -11 -33 10 -28 14 4 20 0 20 -10 0 -18 -57 -41 -65 -26 -4 5 -12 9 -18 9
-8 0 -7 -3 2 -9 10 -7 7 -9 -12 -8 -15 1 -27 7 -27 12 0 6 -5 3 -10 -5 -5 -8
-10 -10 -10 -3 0 12 -29 11 -68 -1 -23 -8 -23 -6 -20 49 2 31 0 58 -4 61 -11
7 2 77 16 87 8 5 6 10 -7 18 -14 8 -15 14 -6 30 6 12 13 18 16 15 4 -3 12 -1
18 4 9 8 13 4 13 -15 0 -14 -5 -28 -10 -31 -6 -4 -5 -9 2 -14 9 -6 7 -13 -6
-28 -26 -30 -27 -54 -3 -47 14 5 19 1 20 -12 1 -35 8 -56 19 -63 11 -7 91 -2
98 5 2 2 4 65 3 140 0 120 -3 140 -21 164 -21 31 -70 47 -82 28 -5 -8 -14 -5
-28 11 -25 27 -18 47 11 31 18 -9 19 -8 10 9 -9 18 -6 19 45 21 36 1 53 -2 49
-9z m393 -22 c-6 -15 -14 -25 -20 -22 -7 4 -7 9 0 13 6 4 8 12 4 18 -5 8 -12
7 -26 -3 -19 -13 -19 -14 3 -33 18 -16 19 -20 5 -25 -8 -3 -23 1 -31 10 -9 9
-26 14 -40 11 -14 -3 -23 1 -23 9 0 9 -6 10 -29 1 -26 -9 -29 -15 -24 -39 4
-21 2 -28 -11 -28 -23 0 -21 -47 2 -54 10 -3 18 -14 18 -25 0 -12 -5 -17 -15
-13 -9 3 -12 1 -7 -6 9 -15 73 -32 94 -25 13 4 14 3 4 -5 -8 -5 -13 -13 -13
-18 1 -8 -7 -10 -53 -13 -14 -1 -17 -7 -14 -26 3 -14 1 -25 -5 -25 -6 0 -7 -3
-4 -6 3 -4 1 -16 -5 -28 -10 -19 -10 -20 5 -7 19 15 23 1 5 -17 -9 -9 -9 -12
-1 -12 16 0 11 -52 -5 -58 -8 -2 -10 3 -6 15 5 15 2 14 -14 -4 -21 -23 -47
-30 -56 -14 -3 4 3 16 14 26 18 16 19 32 19 196 1 99 -3 179 -7 179 -4 0 -16
12 -26 27 -11 14 -14 23 -8 19 6 -3 13 -2 17 3 3 6 61 9 134 9 l129 -1 -10
-29z m567 13 c-2 -9 -4 -18 -5 -21 -1 -3 -2 -9 -1 -14 1 -4 -6 -15 -16 -22
-13 -10 -14 -13 -3 -9 11 4 16 -1 17 -15 1 -11 -1 -20 -3 -20 -15 0 -44 23
-44 34 0 8 -7 17 -16 20 -21 8 -65 -4 -58 -16 3 -5 0 -15 -6 -23 -7 -8 -8 -15
-3 -15 15 0 9 -160 -6 -170 -8 -4 -10 -13 -6 -20 6 -9 10 -9 16 1 6 9 7 -22 5
-76 -3 -54 -9 -91 -16 -93 -7 -3 -4 -9 7 -17 17 -13 17 -15 -5 -37 -12 -14
-19 -28 -15 -31 3 -4 1 -7 -6 -7 -7 0 -10 -4 -7 -8 2 -4 -4 -8 -14 -8 -14 0
-16 4 -9 12 11 13 13 489 3 505 -3 5 -18 9 -33 9 -15 0 -32 5 -38 11 -8 8 -10
1 -6 -28 3 -26 1 -43 -7 -48 -19 -12 -27 6 -33 68 l-6 58 159 -2 c139 -1 157
-4 155 -18z m188 -13 c-30 -31 -43 -37 -22 -10 12 15 12 16 -2 4 -11 -8 -15
-23 -13 -44 2 -18 -1 -35 -8 -40 -8 -4 -8 -8 -2 -8 5 0 11 -21 13 -47 1 -26 4
-49 6 -51 2 -2 26 9 54 25 50 28 51 29 52 78 0 28 0 67 -1 87 l-1 38 60 -1
c56 -1 59 -2 48 -20 -6 -10 -20 -17 -30 -16 -11 1 -22 -5 -25 -13 -5 -13 -3
-13 13 0 17 14 17 13 7 -5 -6 -12 -10 -46 -9 -77 1 -31 -1 -54 -5 -52 -13 8
-37 -8 -35 -26 0 -10 7 -16 14 -13 14 6 28 -38 20 -67 -3 -11 0 -20 5 -20 6 0
3 -9 -7 -20 -16 -17 -16 -20 -3 -15 14 5 16 1 12 -25 -4 -20 0 -38 9 -48 25
-29 17 -48 -20 -49 -21 -1 -31 3 -26 10 4 6 0 8 -9 4 -14 -5 -16 8 -16 86 0
51 -1 98 -1 105 -1 8 -9 10 -27 6 -21 -6 -25 -4 -19 7 6 11 5 12 -6 2 -7 -7
-22 -13 -33 -13 -16 0 -18 -3 -8 -9 10 -6 6 -10 -14 -15 -15 -4 -23 -10 -18
-14 16 -11 18 -112 2 -112 -8 0 -9 -3 -3 -8 15 -10 15 -65 1 -82 -7 -8 -16
-23 -19 -33 -11 -29 -26 -10 -25 29 1 21 4 30 9 22 4 -6 5 -16 3 -20 -3 -4 -1
-8 5 -8 21 0 22 22 2 39 -20 17 -21 28 -21 211 0 187 -1 193 -22 212 -19 16
-20 21 -8 30 12 8 12 9 -2 4 -10 -3 -20 0 -24 5 -4 7 24 10 84 7 l91 -3 -26
-27z m508 15 c20 -20 21 -104 1 -120 -16 -12 -16 -13 1 -7 24 9 21 0 -13 -38
-32 -35 -39 -58 -16 -58 27 0 39 -31 42 -103 1 -40 -2 -79 -7 -88 -5 -10 -4
-20 3 -27 16 -16 -19 -29 -41 -15 -13 8 -17 32 -19 117 -1 58 -4 106 -5 106
-1 0 -16 -4 -34 -9 -22 -7 -33 -6 -37 2 -3 7 -4 3 -3 -8 1 -14 -4 -20 -15 -19
-14 1 -18 -7 -19 -40 0 -22 -1 -66 -2 -97 -2 -42 1 -55 11 -52 8 4 10 0 6 -11
-4 -9 -14 -14 -27 -12 -12 3 -28 5 -35 5 -10 1 -13 38 -12 174 2 258 4 242
-30 281 l-30 34 134 -2 c91 -1 139 -5 147 -13z m283 -14 c26 -30 26 -32 26
-198 0 -164 -1 -168 -22 -180 l-23 -11 23 6 c20 5 22 2 22 -30 0 -20 -4 -36
-10 -36 -5 0 -7 7 -4 15 5 11 2 13 -10 9 -12 -5 -13 -10 -5 -25 5 -11 14 -17
20 -14 5 4 9 -4 9 -16 0 -23 0 -23 -27 3 -37 35 -77 50 -92 35 -7 -7 -11 -8
-11 0 0 6 -16 9 -40 7 -29 -2 -39 0 -34 8 4 7 3 8 -5 4 -6 -4 -9 -11 -7 -15 3
-4 -1 -8 -9 -8 -11 0 -14 38 -15 205 0 196 0 206 21 228 12 12 26 21 33 20 6
-2 8 -1 4 1 -24 14 1 23 61 23 65 0 71 -2 95 -31z m154 4 c6 -16 30 -83 54
-150 24 -68 45 -123 48 -123 3 0 4 67 2 150 l-4 150 64 0 c58 -1 61 -2 44 -15
-11 -8 -16 -15 -11 -15 4 0 -1 -8 -11 -17 -17 -16 -19 -33 -18 -175 0 -119 -3
-158 -12 -158 -17 0 -11 -45 8 -64 19 -19 32 -8 16 13 -7 9 2 3 20 -13 17 -16
31 -31 29 -32 -1 -1 -23 1 -49 5 -26 4 -45 4 -42 -1 6 -10 -7 -10 -22 0 -6 4
-33 61 -59 127 -27 66 -52 124 -56 128 -4 5 -8 -51 -8 -125 -2 -97 -6 -139
-16 -155 -8 -12 -15 -29 -15 -38 0 -8 -7 -15 -15 -15 -13 0 -15 27 -15 180 l0
180 25 0 c14 0 25 5 25 11 0 7 -10 9 -25 5 -23 -6 -25 -4 -25 31 0 25 3 33 9
24 5 -8 16 -11 30 -6 21 7 29 25 11 25 -6 0 -10 8 -8 18 2 12 -4 17 -19 17
-22 1 -73 40 -73 57 0 4 24 8 54 8 49 0 54 -2 64 -27z m324 15 c-5 -7 -7 -20
-3 -28 8 -20 32 -24 25 -5 -4 8 -10 15 -16 15 -5 0 -3 7 6 15 11 11 39 15 116
15 93 0 102 -2 95 -17 -4 -10 -8 -22 -9 -28 -2 -5 -8 -23 -14 -38 -7 -16 -12
-36 -12 -45 0 -9 -5 -24 -10 -32 -7 -10 -9 2 -7 41 3 55 3 56 -22 53 -14 -1
-29 2 -32 8 -4 7 -16 6 -35 -3 -28 -14 -29 -17 -27 -79 2 -99 2 -101 16 -99 6
1 32 1 56 0 l44 -1 -23 -25 c-12 -13 -27 -22 -31 -19 -5 3 -9 0 -9 -7 0 -7
-11 -10 -29 -7 -31 5 -30 9 -22 -94 1 -15 11 -18 56 -18 l55 0 1 58 0 57 15
-40 c8 -22 21 -60 28 -85 l13 -45 -48 -2 c-36 -1 -47 2 -42 10 5 9 3 9 -8 0
-19 -16 -91 -14 -82 1 4 6 -1 5 -10 -3 -10 -8 -38 -15 -63 -16 l-46 -3 32 33
31 32 0 173 1 172 -33 34 -33 34 43 0 c33 0 41 -3 33 -12z m555 -79 c-1 -49
-3 -89 -4 -89 -1 0 -14 24 -29 54 -22 45 -33 55 -58 59 -60 10 -81 3 -81 -28
0 -23 11 -35 65 -72 107 -73 112 -79 105 -120 -3 -21 -11 -40 -17 -44 -8 -5
-6 -12 5 -24 18 -18 23 -45 8 -45 -5 0 -11 5 -13 12 -7 19 -40 0 -36 -19 3
-13 12 -17 31 -16 36 2 36 -25 0 -33 -16 -4 -34 -14 -42 -23 -9 -11 -15 -12
-18 -4 -5 14 -58 -1 -86 -25 -9 -8 -20 -12 -24 -9 -3 4 -15 0 -25 -10 -17 -15
-18 -14 -19 18 -4 106 -3 259 2 259 3 0 16 -46 30 -101 24 -103 38 -122 68
-100 9 6 28 17 44 24 26 11 27 13 27 98 l0 88 -55 20 c-31 12 -61 21 -68 21
-37 1 -53 34 -56 123 -1 9 -12 27 -26 39 -14 12 -25 25 -25 30 0 5 67 8 149 7
l150 -1 -2 -89z m-4032 71 c-3 -5 -12 -10 -18 -10 -7 0 -6 4 3 10 19 12 23 12
15 0z m-369 -66 c-2 -16 -36 -42 -36 -28 0 7 30 44 36 44 1 0 1 -7 0 -16z
m1302 -10 c9 3 24 1 32 -5 13 -9 12 -10 -2 -5 -10 3 -21 -1 -25 -8 -5 -7 -15
-16 -23 -20 -8 -3 -3 -4 12 -2 15 1 25 -1 22 -5 -3 -5 -1 -9 5 -9 18 0 0 -29
-22 -36 -12 -4 -24 -5 -27 -3 -2 2 -5 31 -7 64 -2 46 0 56 8 42 6 -10 17 -16
27 -13z m-316 -26 c-7 -7 -12 -8 -12 -2 0 14 12 26 19 19 2 -3 -1 -11 -7 -17z
m799 -9 c-9 -22 -10 -22 -10 -3 -1 11 2 24 6 27 12 12 14 0 4 -24z m-1775 6
c-8 -8 -23 -15 -32 -15 -16 0 -16 1 2 15 26 20 51 20 30 0z m2365 -9 c5 3 9
-5 9 -18 -1 -22 -1 -22 -15 -4 -8 11 -15 25 -14 30 0 6 3 5 6 -2 2 -6 9 -10
14 -6z m-726 -15 c3 -5 1 -12 -5 -16 -5 -3 -10 1 -10 9 0 18 6 21 15 7z
m-1655 -5 c0 -2 -7 -9 -15 -16 -13 -11 -14 -10 -9 4 5 14 24 23 24 12z m-170
-96 c6 0 8 -5 4 -12 -5 -7 -2 -9 7 -6 10 4 14 -5 16 -33 1 -22 -2 -39 -7 -39
-4 0 -3 -16 3 -35 10 -34 11 -35 64 -35 44 0 53 3 54 18 0 9 2 26 4 37 7 31
-5 55 -26 55 -23 0 -24 9 -1 35 34 39 59 55 74 50 23 -9 11 -44 -13 -40 -10 2
-21 0 -24 -6 -4 -5 1 -9 10 -9 9 0 13 -5 10 -10 -3 -6 0 -13 9 -16 8 -3 12
-12 9 -20 -3 -8 0 -21 7 -29 12 -15 6 -35 -12 -35 -7 0 -6 6 2 15 7 9 8 15 2
15 -5 0 -12 -6 -14 -12 -7 -18 2 -39 13 -32 5 3 9 -7 9 -21 0 -21 -4 -25 -19
-20 -25 8 -35 -9 -16 -25 10 -9 15 -9 15 -1 0 6 5 11 10 11 6 0 10 -6 10 -14
0 -18 -50 -28 -56 -11 -3 8 -21 12 -44 11 -21 0 -36 2 -33 7 2 4 0 7 -6 7 -5
0 -12 -4 -15 -9 -7 -10 -53 -8 -63 3 -4 3 -1 12 5 18 17 17 15 41 -2 35 -11
-5 -14 13 -14 96 0 67 4 94 9 80 5 -13 13 -23 19 -23z m30 9 c0 -14 -16 -11
-29 5 -10 12 -8 13 8 9 12 -3 21 -9 21 -14z m1463 -64 c-3 -9 -8 -14 -10 -11
-3 3 -2 9 2 15 9 16 15 13 8 -4z m-872 -70 c6 4 15 1 20 -6 12 -19 11 -29 -2
-29 -5 0 -7 5 -4 10 3 6 1 10 -4 10 -6 0 -11 -7 -11 -15 0 -8 4 -15 8 -15 4 0
8 -9 9 -20 1 -14 -4 -20 -18 -20 -18 0 -19 -2 -5 -15 13 -13 13 -20 4 -35 -19
-30 -29 -2 -32 80 -1 53 1 66 11 58 7 -5 17 -7 24 -3z m-301 -55 c0 -5 -5 -10
-11 -10 -5 0 -7 5 -4 10 3 6 8 10 11 10 2 0 4 -4 4 -10z m1540 -15 c10 -13 9
-15 -8 -15 -15 0 -20 5 -16 15 4 8 7 15 9 15 1 0 8 -7 15 -15z m1085 -14 c3
-5 1 -12 -4 -15 -5 -3 -11 1 -15 9 -6 16 9 21 19 6z m-1291 -26 c-4 -8 -11
-12 -16 -9 -6 4 -5 10 3 15 19 12 19 11 13 -6z m1576 -10 c0 -9 6 -12 16 -8
14 5 15 3 5 -15 -7 -12 -16 -22 -22 -22 -6 0 -8 -3 -6 -7 3 -5 1 -16 -2 -27
-4 -11 -8 7 -9 43 -1 37 3 59 8 56 6 -4 10 -13 10 -20z m-3030 -20 c0 -28 -24
-34 -34 -9 -8 20 1 34 20 34 8 0 14 -10 14 -25z m3144 10 c3 -8 1 -15 -4 -15
-6 0 -10 7 -10 15 0 8 2 15 4 15 2 0 6 -7 10 -15z m-269 -5 c3 -5 -3 -10 -14
-10 -12 0 -21 5 -21 10 0 6 6 10 14 10 8 0 18 -4 21 -10z m1375 6 c0 -2 -7 -7
-16 -10 -8 -3 -12 -2 -9 4 6 10 25 14 25 6z m-2990 -16 c0 -5 -5 -10 -11 -10
-5 0 -7 5 -4 10 3 6 8 10 11 10 2 0 4 -4 4 -10z m-580 -46 c0 -8 -5 -12 -10
-9 -6 4 -8 11 -5 16 9 14 15 11 15 -7z m918 -96 c7 -7 12 -16 12 -22 0 -6 -5
-5 -12 2 -16 16 -53 15 -66 0 -10 -14 -42 -113 -42 -134 0 -8 14 -10 45 -6 30
3 45 1 45 -7 0 -6 -17 -11 -39 -11 -21 0 -44 -6 -50 -13 -13 -16 -17 -140 -7
-217 6 -46 5 -52 -6 -35 -8 13 -12 61 -13 137 l0 118 -37 0 c-52 0 -48 18 4
22 l42 3 13 58 c19 86 38 117 71 117 16 0 33 -5 40 -12z m-1105 -163 c-7 -150
-6 -152 55 -115 19 12 32 16 30 9 -2 -6 -22 -22 -45 -36 l-42 -24 -11 21 c-13
25 -3 293 11 285 4 -3 5 -66 2 -140z m1802 7 c0 -67 1 -122 2 -122 0 0 14 24
31 53 16 28 42 65 57 81 22 24 29 27 40 15 15 -16 27 -215 12 -200 -5 5 -10
45 -11 90 -1 44 -5 84 -9 88 -13 12 -53 -36 -87 -107 -19 -38 -38 -70 -43 -70
-6 0 -7 43 -4 113 4 61 3 129 -2 150 -7 28 -6 37 2 34 8 -3 12 -42 12 -125z
m-165 61 l0 -48 57 2 c42 2 52 0 38 -6 -11 -5 -31 -10 -45 -10 -43 -2 -52 -15
-52 -72 0 -63 19 -83 71 -75 39 6 30 -8 -10 -18 -45 -10 -71 20 -77 89 -4 44
-10 64 -26 77 l-21 17 27 1 c26 0 27 1 21 45 -3 29 -1 45 6 45 6 0 11 -19 11
-47z m-1756 11 c29 -11 16 -21 -26 -20 -74 1 -189 -70 -203 -125 -4 -18 -1
-32 11 -44 34 -34 224 0 224 39 0 9 6 16 13 16 9 0 12 -26 12 -95 0 -52 -3
-95 -7 -95 -11 0 -28 64 -24 95 2 17 2 33 0 36 -2 4 -32 -2 -66 -13 -101 -32
-188 -10 -188 46 0 37 57 93 132 130 71 36 93 41 122 30z m2244 -26 c31 -31 1
-93 -51 -106 -30 -8 -32 -11 -32 -53 0 -41 2 -44 29 -47 19 -2 36 4 52 19 13
12 27 20 30 16 13 -13 -49 -57 -80 -57 -46 0 -59 28 -51 103 7 60 11 68 52
113 25 27 34 29 51 12z m786 -90 c10 -43 21 -78 25 -78 4 0 23 32 43 70 33 63
38 68 47 51 6 -11 11 -24 11 -30 0 -5 9 -31 20 -57 l21 -48 38 74 c21 40 36
81 33 92 -5 19 12 25 23 7 8 -13 -86 -212 -95 -202 -4 5 -18 34 -30 66 -13 31
-27 57 -32 57 -10 0 -53 -67 -62 -98 -13 -40 -29 -18 -52 69 -27 104 -27 102
-25 114 3 25 20 -17 35 -87z m-2688 74 c22 -15 44 -58 44 -87 0 -36 -28 -80
-66 -106 -75 -49 -104 -1 -69 115 22 73 56 102 91 78z m310 -87 c-7 -108 -4
-111 57 -69 65 44 106 95 107 132 0 32 13 43 23 19 9 -23 -4 -300 -15 -321
-35 -64 -114 -76 -173 -25 -19 17 -35 40 -35 52 0 24 27 57 46 57 8 0 3 -10
-11 -25 -32 -31 -31 -35 5 -70 45 -43 101 -42 141 3 29 32 29 34 29 150 l-1
117 -37 -41 c-50 -56 -107 -96 -129 -92 -10 2 -20 15 -23 32 -8 47 1 176 12
176 8 0 9 -30 4 -95z m699 69 c48 -52 21 -147 -50 -181 -66 -31 -92 20 -61
115 32 95 66 115 111 66z m1189 10 c17 -16 22 -54 8 -54 -5 0 -14 11 -20 25
-14 31 -27 32 -46 3 -39 -62 -40 -148 0 -148 23 0 75 30 96 54 24 29 23 11 -3
-25 -12 -17 -37 -33 -61 -41 -38 -11 -42 -10 -59 11 -23 28 -24 79 -4 128 27
65 56 80 89 47z m389 -4 c33 -26 44 -78 24 -116 -22 -42 -58 -73 -94 -80 -26
-5 -33 -2 -43 16 -7 12 -10 34 -7 49 28 140 61 177 120 131z m-2467 -38 l6
-47 48 47 c26 27 55 48 66 48 12 0 3 -9 -24 -27 -47 -31 -98 -118 -89 -153 3
-13 0 -20 -9 -20 -11 0 -14 19 -14 84 0 46 -3 91 -6 100 -3 9 -1 16 5 16 5 0
13 -21 17 -48z m994 -8 l0 -44 48 50 c27 28 56 50 66 50 9 0 14 -4 11 -10 -3
-5 -12 -10 -19 -10 -38 0 -120 -139 -101 -170 3 -6 2 -10 -3 -10 -5 0 -12 30
-15 68 -10 97 -9 134 3 127 6 -3 10 -26 10 -51z m1206 6 l7 -51 20 29 c24 34
76 72 98 72 8 0 0 -8 -16 -19 -60 -36 -116 -128 -101 -166 3 -9 -1 -15 -9 -15
-12 0 -15 17 -15 84 0 46 -3 91 -6 100 -3 9 -1 16 5 16 5 0 13 -23 17 -50z
m695 33 c0 -10 0 -47 -1 -83 l-2 -65 31 42 c17 24 31 46 31 51 0 16 57 75 67
69 6 -4 13 -29 17 -57 8 -62 22 -100 36 -100 6 0 22 12 36 27 33 36 41 23 9
-16 -48 -57 -80 -38 -91 52 -4 32 -11 60 -15 63 -5 3 -17 -10 -28 -28 -39 -66
-94 -137 -103 -132 -12 7 -10 194 2 194 6 0 10 -8 11 -17z"/>
<path d="M2943 5880 c-28 -19 -59 -40 -69 -47 -17 -10 -15 -11 14 -11 18 1 35
-2 39 -5 3 -4 -3 -7 -15 -7 -32 0 -36 -18 -5 -23 22 -3 20 -4 -10 -6 -23 0
-36 -5 -32 -11 4 -6 11 -8 16 -5 5 4 17 1 26 -4 14 -8 9 -11 -27 -12 -34 -2
-27 -4 30 -9 41 -4 58 -7 38 -8 -35 -2 -55 -21 -25 -23 6 -1 1 -5 -13 -9 -19
-6 -12 -9 35 -11 l60 -2 -50 -7 c-44 -6 -38 -15 8 -11 9 1 17 -3 17 -8 0 -6
-17 -12 -37 -12 -21 -1 -30 -3 -20 -6 9 -2 15 -9 12 -14 -9 -13 9 -11 24 4 11
10 13 10 7 0 -5 -9 3 -13 29 -13 20 0 34 -4 30 -9 -3 -6 -13 -9 -23 -9 -9 1
-55 -17 -102 -39 -324 -155 -848 -265 -1444 -305 l-178 -12 -24 -53 c-40 -92
-92 -266 -119 -398 -94 -463 -18 -910 226 -1336 28 -49 55 -89 60 -89 6 0 19
5 30 10 18 10 17 14 -20 83 -161 296 -242 673 -213 999 22 243 81 460 175 649
l52 104 140 7 c405 20 751 72 1025 154 121 37 302 118 357 160 l33 25 33 -25
c95 -73 343 -166 587 -219 215 -48 596 -93 840 -99 l95 -3 47 -90 c58 -111
129 -323 159 -476 20 -97 23 -147 24 -329 0 -186 -3 -231 -23 -330 -33 -163
-85 -311 -163 -468 -67 -133 -71 -151 -33 -152 14 0 121 189 167 295 52 120
95 256 124 395 25 114 27 145 28 355 0 286 -22 420 -111 676 -59 170 -35 153
-231 168 -227 17 -399 36 -578 67 -153 25 -454 90 -463 99 -5 5 23 9 45 6 6
-1 14 3 17 8 6 9 101 -14 185 -44 24 -8 46 -13 48 -11 3 2 -5 7 -16 11 -12 3
-19 10 -16 15 3 5 -39 23 -92 41 -54 18 -93 34 -87 36 7 2 60 -12 120 -31 59
-19 110 -34 112 -32 1 2 -32 16 -75 31 -75 27 -109 45 -86 45 6 0 26 -6 44
-14 19 -7 50 -17 69 -20 27 -5 22 -1 -25 20 -69 30 -83 40 -40 29 17 -4 44 -9
60 -11 17 -1 55 -11 85 -22 95 -34 97 -33 15 8 -79 40 -64 44 28 9 65 -26 71
-23 17 7 -28 15 -36 22 -20 19 20 -5 18 -2 -10 14 -47 27 -34 26 47 -4 60 -22
65 -23 43 -5 -35 27 -20 25 57 -10 91 -41 93 -37 3 10 -68 36 -64 44 10 18 23
-7 24 -7 7 6 -11 8 -38 17 -60 21 -369 58 -769 188 -942 306 l-50 35 -52 -36z
m137 -299 c0 -5 -9 -7 -20 -4 -11 3 -20 7 -20 9 0 2 9 4 20 4 11 0 20 -4 20
-9z m850 -21 c8 -5 11 -10 5 -10 -5 0 -17 5 -25 10 -8 5 -10 10 -5 10 6 0 17
-5 25 -10z"/>
<path d="M2985 5530 c-3 -5 2 -10 12 -10 15 -1 14 -3 -6 -14 -20 -11 -21 -14
-6 -19 9 -4 35 -7 58 -8 23 0 35 -3 27 -6 -10 -4 -4 -10 20 -19 l35 -12 -30
-2 -30 -1 25 -14 c14 -8 21 -14 15 -15 -5 0 -30 11 -54 25 l-43 25 -122 -60
c-182 -89 -375 -148 -647 -194 -177 -31 -376 -54 -534 -61 -66 -3 -139 -8
-161 -11 l-42 -5 -40 -97 c-183 -445 -201 -881 -51 -1290 30 -82 120 -273 141
-299 6 -8 25 -5 71 14 219 89 474 157 757 202 36 6 99 16 140 23 52 9 193 13
465 13 322 0 413 -3 520 -18 328 -46 620 -120 858 -218 38 -16 74 -29 78 -29
15 0 127 241 164 351 68 207 79 277 79 539 0 205 -3 248 -22 335 -42 191 -134
446 -169 473 -9 6 -42 12 -72 12 -181 0 -591 53 -828 106 -124 27 -239 65
-188 61 19 -1 29 3 27 11 -1 6 8 12 20 13 13 0 -38 21 -112 48 -156 55 -193
71 -276 123 -67 42 -70 43 -79 28z m495 -435 l0 -25 115 0 c105 0 116 -2 135
-22 34 -36 21 -141 -31 -256 -60 -134 -140 -210 -246 -233 -58 -13 -74 -29
-53 -54 36 -44 -45 -64 -83 -21 l-21 24 -36 -28 c-19 -15 -58 -39 -87 -54 -29
-14 -58 -36 -65 -48 -15 -26 -16 -284 -1 -332 8 -26 14 -29 62 -33 71 -6 100
-18 111 -47 5 -14 27 -34 50 -46 33 -17 40 -25 40 -50 l0 -30 -365 0 -365 0 0
24 c0 25 41 66 66 66 7 0 21 14 29 30 18 36 38 45 117 54 l56 7 9 87 c11 121
9 223 -6 259 -9 21 -27 37 -63 54 -28 13 -67 36 -86 50 l-35 26 -35 -23 c-41
-28 -55 -30 -77 -8 -14 15 -14 19 -1 40 18 27 17 28 -68 54 -118 37 -205 141
-255 304 -28 91 -28 167 0 192 18 16 38 19 133 20 106 0 111 1 114 22 l3 22
470 0 469 0 0 -25z m-1685 -315 c3 -5 2 -10 -4 -10 -5 0 -13 5 -16 10 -3 6 -2
10 4 10 5 0 13 -4 16 -10z m35 -36 c0 -8 -5 -12 -10 -9 -6 4 -8 11 -5 16 9 14
15 11 15 -7z m-70 -130 c0 -8 -5 -12 -10 -9 -6 4 -8 11 -5 16 9 14 15 11 15
-7z m180 -98 c0 -11 -19 -15 -25 -6 -3 5 1 10 9 10 9 0 16 -2 16 -4z m-275
-136 c3 -5 1 -10 -4 -10 -6 0 -11 5 -11 10 0 6 2 10 4 10 3 0 8 -4 11 -10z
m335 6 c0 -3 -4 -8 -10 -11 -5 -3 -10 -1 -10 4 0 6 5 11 10 11 6 0 10 -2 10
-4z m-370 -42 c0 -8 -5 -12 -10 -9 -6 4 -8 11 -5 16 9 14 15 11 15 -7z m370
-28 c0 -3 -4 -8 -10 -11 -5 -3 -10 -1 -10 4 0 6 5 11 10 11 6 0 10 -2 10 -4z
m-100 -30 c0 -3 -4 -8 -10 -11 -5 -3 -10 -1 -10 4 0 6 5 11 10 11 6 0 10 -2
10 -4z m2190 0 c0 -3 -4 -8 -10 -11 -5 -3 -10 -1 -10 4 0 6 5 11 10 11 6 0 10
-2 10 -4z m-1660 -70 c0 -3 -4 -8 -10 -11 -5 -3 -10 -1 -10 4 0 6 5 11 10 11
6 0 10 -2 10 -4z m165 -36 c3 -5 2 -10 -4 -10 -5 0 -13 5 -16 10 -3 6 -2 10 4
10 5 0 13 -4 16 -10z m-670 -64 c36 -53 39 -55 94 -61 31 -4 65 -9 75 -12 19
-5 19 -6 -2 -23 -89 -73 -84 -64 -74 -130 5 -33 5 -60 1 -60 -5 0 -38 11 -74
25 l-65 24 -66 -25 c-37 -14 -68 -23 -71 -21 -2 3 0 30 5 61 l9 56 -53 43
c-29 23 -53 45 -54 50 0 4 15 7 33 8 58 1 111 10 124 20 7 6 25 31 40 55 15
24 31 44 34 44 4 0 23 -24 44 -54z m2241 -4 l40 -57 73 -11 c40 -7 75 -15 78
-18 4 -4 -4 -14 -17 -23 -12 -9 -37 -29 -55 -44 -32 -28 -32 -28 -22 -89 5
-33 8 -63 5 -65 -2 -3 -33 6 -68 20 -79 31 -81 31 -160 0 -35 -14 -65 -25 -68
-25 -2 0 0 31 3 68 l7 68 -56 46 c-35 29 -51 48 -43 51 8 3 44 8 81 12 l68 8
42 58 c22 32 43 58 46 58 3 0 23 -26 46 -57z m-2076 28 c0 -5 -2 -10 -4 -10
-3 0 -8 5 -11 10 -3 6 -1 10 4 10 6 0 11 -4 11 -10z m301 -33 c-13 -13 -26 -3
-16 12 3 6 11 8 17 5 6 -4 6 -10 -1 -17z m1004 13 c3 -5 -1 -10 -10 -10 -9 0
-13 5 -10 10 3 6 8 10 10 10 2 0 7 -4 10 -10z m-1725 -4 c0 -3 -4 -8 -10 -11
-5 -3 -10 -1 -10 4 0 6 5 11 10 11 6 0 10 -2 10 -4z m1860 0 c0 -3 -4 -8 -10
-11 -5 -3 -10 -1 -10 4 0 6 5 11 10 11 6 0 10 -2 10 -4z m-1500 -36 c0 -5 -4
-10 -10 -10 -5 0 -10 5 -10 10 0 6 5 10 10 10 6 0 10 -4 10 -10z m230 -30 c0
-5 -4 -10 -10 -10 -5 0 -10 5 -10 10 0 6 5 10 10 10 6 0 10 -4 10 -10z m1530
0 c0 -5 -5 -10 -11 -10 -5 0 -7 5 -4 10 3 6 8 10 11 10 2 0 4 -4 4 -10z m-95
-30 c3 -5 1 -10 -4 -10 -6 0 -11 5 -11 10 0 6 2 10 4 10 3 0 8 -4 11 -10z m65
0 c0 -5 -4 -10 -10 -10 -5 0 -10 5 -10 10 0 6 5 10 10 10 6 0 10 -4 10 -10z
m-1560 -44 c0 -3 -4 -8 -10 -11 -5 -3 -10 -1 -10 4 0 6 5 11 10 11 6 0 10 -2
10 -4z m87 -38 c-3 -8 -6 -5 -6 6 -1 11 2 17 5 13 3 -3 4 -12 1 -19z m1203 18
c0 -3 -4 -8 -10 -11 -5 -3 -10 -1 -10 4 0 6 5 11 10 11 6 0 10 -2 10 -4z
m-1223 -42 c-3 -3 -12 -4 -19 -1 -8 3 -5 6 6 6 11 1 17 -2 13 -5z m163 -34 c0
-5 -2 -10 -4 -10 -3 0 -8 5 -11 10 -3 6 -1 10 4 10 6 0 11 -4 11 -10z m-30
-30 c0 -5 -2 -10 -4 -10 -3 0 -8 5 -11 10 -3 6 -1 10 4 10 6 0 11 -4 11 -10z
m60 0 c0 -5 -4 -10 -10 -10 -5 0 -10 5 -10 10 0 6 5 10 10 10 6 0 10 -4 10
-10z m-70 -70 c0 -5 -2 -10 -4 -10 -3 0 -8 5 -11 10 -3 6 -1 10 4 10 6 0 11
-4 11 -10z m-760 -100 c0 -5 -5 -10 -11 -10 -5 0 -7 5 -4 10 3 6 8 10 11 10 2
0 4 -4 4 -10z"/>
<path d="M3293 5103 c9 -2 25 -2 35 0 9 3 1 5 -18 5 -19 0 -27 -2 -17 -5z"/>
<path d="M2802 5043 l-173 -3 6 -58 c16 -147 42 -239 90 -327 42 -76 82 -114
170 -162 42 -23 78 -51 90 -70 11 -18 22 -32 25 -32 3 0 12 14 20 31 12 22 36
42 89 69 41 21 91 55 112 75 77 75 145 259 151 406 l3 73 -205 0 c-113 1 -283
-1 -378 -2z m128 -172 c0 -11 16 -32 35 -47 l35 -26 34 28 c19 16 35 37 35 47
1 9 5 17 10 17 15 0 24 -21 14 -31 -6 -6 -7 -25 -3 -42 6 -30 9 -32 45 -30 21
2 43 7 49 13 5 5 16 10 23 10 19 0 16 -21 -4 -27 -10 -2 -36 -28 -57 -58 -30
-42 -42 -52 -55 -46 -34 19 -106 22 -154 7 l-48 -14 -41 51 c-22 29 -49 55
-60 59 -11 4 -16 12 -13 18 8 12 32 13 37 2 2 -5 22 -12 45 -15 36 -6 42 -4
48 14 4 11 4 36 0 55 -5 27 -3 34 10 34 8 0 15 -9 15 -19z m90 -216 c7 -8 21
-15 31 -15 23 0 25 -16 3 -24 -9 -4 -13 -13 -10 -23 5 -16 -1 -18 -44 -19 -44
0 -50 2 -44 18 3 11 -1 20 -10 24 -25 9 -19 24 9 24 14 0 28 7 31 15 4 8 10
15 14 15 4 0 13 -7 20 -15z"/>
<path d="M2336 5011 c-11 -18 22 -149 55 -218 54 -113 115 -165 222 -187 33
-8 33 -7 3 52 -34 68 -55 147 -70 259 l-12 98 -96 3 c-55 1 -99 -1 -102 -7z"/>
<path d="M3479 5018 c0 -2 -2 -32 -5 -68 -8 -101 -32 -199 -66 -273 -17 -37
-28 -70 -25 -73 3 -3 31 2 62 11 103 30 192 148 232 309 23 95 22 96 -97 96
-55 0 -100 -1 -101 -2z"/>
<path d="M3000 3985 l0 -54 -77 -4 c-43 -1 -1 -3 92 -4 98 -1 159 2 145 7 -14
4 -51 8 -82 9 l-58 1 0 50 c0 28 -4 50 -10 50 -5 0 -10 -25 -10 -55z"/>
<path d="M1856 4061 c-16 -23 -30 -30 -70 -36 l-51 -6 34 -28 c29 -24 33 -32
29 -64 -5 -42 -2 -43 48 -22 31 13 40 13 71 0 51 -21 56 -19 49 17 -5 27 -1
37 25 64 l31 32 -46 7 c-35 6 -51 14 -67 36 -25 36 -29 36 -53 0z"/>
<path d="M4093 4055 c-19 -29 -30 -35 -73 -41 -27 -4 -50 -9 -50 -13 0 -3 16
-17 35 -30 34 -23 35 -26 29 -67 l-6 -44 46 21 46 20 46 -20 46 -21 -4 43 c-4
38 -1 45 31 73 l35 31 -52 7 c-45 6 -55 11 -75 41 -12 19 -24 35 -27 35 -3 0
-15 -16 -27 -35z"/>
<path d="M3930 5510 c8 -5 20 -10 25 -10 6 0 3 5 -5 10 -8 5 -19 10 -25 10 -5
0 -3 -5 5 -10z"/>
<path d="M2877 3551 c-116 -30 -161 -81 -160 -182 1 -85 35 -139 110 -176 56
-27 64 -28 203 -27 125 0 151 3 190 21 151 68 172 266 36 335 -99 50 -252 62
-379 29z m309 -74 c52 -27 69 -54 69 -112 0 -63 -18 -88 -85 -119 -38 -17 -62
-20 -148 -18 -162 3 -222 41 -222 141 0 45 35 95 79 113 67 28 250 25 307 -5z"/>
<path d="M2893 3393 c-7 -2 -13 -18 -13 -34 l0 -30 153 3 152 3 3 26 c3 23 -1
27 -35 32 -44 8 -242 8 -260 0z"/>
<path d="M3450 3524 c0 -13 0 -27 -1 -31 -1 -8 8 -10 164 -33 48 -7 94 -18
101 -24 11 -9 6 -39 -30 -171 -23 -88 -42 -160 -41 -161 1 -1 19 -6 39 -12
l37 -10 15 51 c8 29 29 104 47 167 18 63 33 116 34 118 1 1 56 -12 121 -29
175 -46 160 -45 172 -10 l11 31 -67 19 c-109 33 -268 68 -402 89 -214 35 -200
34 -200 6z"/>
<path d="M2405 3516 c-246 -47 -340 -89 -382 -170 -21 -41 -19 -104 5 -152 49
-97 141 -136 275 -117 77 11 335 53 353 58 7 2 6 30 -3 91 -22 152 -20 147
-60 141 -20 -4 -38 -9 -41 -12 -3 -3 2 -39 12 -81 20 -82 16 -94 -30 -94 -12
0 -66 -9 -119 -20 -199 -41 -289 -18 -315 81 -19 71 24 130 122 165 49 17 279
64 317 64 53 0 71 11 71 41 0 28 -2 29 -42 28 -24 0 -97 -11 -163 -23z"/>
<path d="M5011 2974 c0 -11 3 -14 6 -6 3 7 2 16 -1 19 -3 4 -6 -2 -5 -13z"/>
<path d="M2800 2970 c-235 -20 -450 -58 -629 -113 l-103 -31 33 -28 c219 -184
513 -381 788 -526 l113 -59 121 65 c253 135 535 320 716 469 l95 77 -32 13
c-52 21 -259 71 -382 92 -222 38 -541 56 -720 41z m290 -75 c0 -3 -23 -50 -50
-105 l-50 -100 65 0 c36 0 65 -4 65 -9 0 -6 -18 -43 -40 -83 -22 -40 -40 -76
-40 -80 0 -5 21 -8 46 -8 33 0 45 -4 41 -12 -6 -18 -117 -193 -117 -187 0 3
11 37 24 76 l24 71 -44 5 c-25 2 -47 7 -50 10 -3 3 13 42 36 87 l41 82 -65 -4
c-37 -1 -66 0 -66 3 0 7 46 118 84 202 24 54 28 57 61 57 19 0 35 -2 35 -5z"/>
<path d="M5001 2924 c0 -11 3 -14 6 -6 3 7 2 16 -1 19 -3 4 -6 -2 -5 -13z"/>
<path d="M5101 2914 c0 -11 3 -14 6 -6 3 7 2 16 -1 19 -3 4 -6 -2 -5 -13z"/>
<path d="M5131 2900 c0 -33 1 -34 10 -11 6 16 6 28 -1 35 -7 7 -10 -1 -9 -24z"/>
<path d="M4991 2884 c0 -11 3 -14 6 -6 3 7 2 16 -1 19 -3 4 -6 -2 -5 -13z"/>
<path d="M1950 2780 c-10 -6 -11 -12 -5 -18 221 -199 608 -461 949 -643 l99
-52 56 29 c115 60 360 203 476 279 245 159 536 388 516 408 -7 7 -22 0 -48
-22 -288 -242 -569 -429 -880 -585 -51 -25 -100 -46 -109 -46 -24 0 -347 173
-512 274 -147 91 -350 238 -458 332 -68 60 -63 57 -84 44z"/>
<path d="M2758 1993 c7 -3 16 -2 19 1 4 3 -2 6 -13 5 -11 0 -14 -3 -6 -6z"/>
<path d="M2878 1973 c6 -2 18 -2 25 0 6 3 1 5 -13 5 -14 0 -19 -2 -12 -5z"/>
<path d="M1100 1149 c0 -5 5 -7 10 -4 6 3 10 8 10 11 0 2 -4 4 -10 4 -5 0 -10
-5 -10 -11z"/>
<path d="M1126 1144 c-3 -9 -6 -24 -6 -35 0 -11 -9 -27 -20 -36 -11 -10 -20
-27 -20 -39 0 -11 9 -29 20 -39 27 -24 26 -44 -2 -39 l-23 5 23 -10 c12 -6 22
-19 22 -30 0 -31 13 -32 64 -5 25 14 50 23 54 20 4 -2 6 24 5 57 -1 34 -2 77
-3 96 0 28 -3 33 -20 28 -10 -3 -24 1 -31 9 -15 18 -24 18 -44 -2 -15 -15 -15
-14 -9 10 7 28 0 36 -10 10z"/>
<path d="M1544 1145 c-10 -8 -14 -15 -8 -15 6 0 17 7 24 15 16 19 9 19 -16 0z"/>
<path d="M1535 830 c-3 -5 -1 -10 4 -10 6 0 11 5 11 10 0 6 -2 10 -4 10 -3 0
-8 -4 -11 -10z"/>
<path d="M1640 720 c-9 -6 -10 -10 -3 -10 6 0 15 5 18 10 8 12 4 12 -15 0z"/>
<path d="M1770 1145 c0 -19 5 -25 22 -25 20 0 20 1 4 19 -13 15 -14 20 -4 24
8 4 7 6 -4 6 -13 1 -18 -7 -18 -24z"/>
<path d="M2368 1123 c7 -3 16 -2 19 1 4 3 -2 6 -13 5 -11 0 -14 -3 -6 -6z"/>
<path d="M2410 1111 c-14 -4 -20 -10 -14 -14 6 -3 20 0 30 8 21 16 20 16 -16
6z"/>
<path d="M2450 1099 c0 -5 5 -7 10 -4 6 3 10 8 10 11 0 2 -4 4 -10 4 -5 0 -10
-5 -10 -11z"/>
<path d="M2445 1070 c-3 -6 1 -7 9 -4 18 7 21 14 7 14 -6 0 -13 -4 -16 -10z"/>
<path d="M2270 950 c-9 -6 -10 -10 -3 -10 6 0 15 5 18 10 8 12 4 12 -15 0z"/>
<path d="M3204 844 c3 -8 6 -20 6 -25 0 -6 5 -7 10 -4 15 10 12 32 -6 39 -12
5 -15 2 -10 -10z"/>
<path d="M3867 1157 c-22 -15 -14 -43 14 -52 23 -7 25 -25 4 -25 -8 0 -15 -4
-15 -10 0 -5 7 -10 15 -10 12 0 15 -13 15 -56 0 -31 3 -54 8 -52 4 2 28 13 55
26 l47 22 0 55 c0 43 -4 56 -19 64 -10 6 -21 7 -25 4 -9 -9 -57 -13 -52 -5 2
4 -3 18 -13 30 -14 19 -19 21 -34 9z"/>
<path d="M4048 844 c2 -13 7 -24 11 -24 11 0 7 39 -5 44 -7 3 -9 -5 -6 -20z"/>
<path d="M4143 1114 c-8 -20 8 -36 26 -25 15 10 8 41 -9 41 -6 0 -13 -7 -17
-16z"/>
<path d="M4205 1110 c-3 -5 2 -10 12 -11 13 -1 11 -3 -7 -9 -14 -4 -19 -8 -12
-9 21 -2 3 -21 -19 -21 -11 0 -17 -5 -14 -10 4 -6 10 -8 15 -5 5 3 11 1 14 -4
4 -5 2 -13 -4 -16 -7 -4 -8 -11 -2 -18 13 -16 3 -77 -12 -77 -7 0 -7 -3 1 -8
13 -8 24 -67 15 -77 -10 -9 -9 -45 1 -45 5 0 7 -6 4 -14 -7 -17 19 -23 76 -17
l37 3 0 139 c0 138 0 139 -27 168 -31 33 -68 48 -78 31z"/>
<path d="M4155 980 c3 -5 11 -10 16 -10 6 0 7 5 4 10 -3 6 -11 10 -16 10 -6 0
-7 -4 -4 -10z"/>
<path d="M4164 882 c-11 -7 -15 -42 -5 -42 3 0 13 5 21 10 13 8 12 10 -4 10
-15 0 -16 3 -6 15 14 16 11 19 -6 7z"/>
<path d="M4620 846 c0 -2 7 -7 16 -10 8 -3 12 -2 9 4 -6 10 -25 14 -25 6z"/>
<path d="M5146 1132 c-6 -10 -3 -33 8 -50 6 -10 11 -10 22 -1 8 6 14 17 14 23
0 14 -37 38 -44 28z"/>
<path d="M5350 1120 c0 -5 5 -10 10 -10 6 0 10 5 10 10 0 6 -4 10 -10 10 -5 0
-10 -4 -10 -10z"/>
<path d="M5157 1029 c8 -8 16 -8 30 0 16 9 14 10 -11 11 -22 0 -27 -3 -19 -11z"/>
<path d="M799 883 c8 -16 8 -23 -2 -26 -7 -3 -5 -6 6 -6 21 -1 22 9 1 35 -15
18 -15 18 -5 -3z"/>
<path d="M965 870 c-3 -5 -1 -10 4 -10 6 0 11 5 11 10 0 6 -2 10 -4 10 -3 0
-8 -4 -11 -10z"/>
<path d="M1400 679 c0 -5 5 -7 10 -4 6 3 10 8 10 11 0 2 -4 4 -10 4 -5 0 -10
-5 -10 -11z"/>
<path d="M975 670 c-3 -5 -1 -10 4 -10 6 0 11 5 11 10 0 6 -2 10 -4 10 -3 0
-8 -4 -11 -10z"/>
<path d="M3578 383 c-19 -23 -41 -63 -33 -63 16 0 63 31 69 46 13 33 -12 45
-36 17z"/>
<path d="M1668 360 c-22 -24 -53 -123 -45 -144 16 -41 100 3 116 61 7 23 5 40
-7 65 -20 38 -40 44 -64 18z"/>
<path d="M2653 347 c-26 -40 -48 -110 -40 -131 11 -28 56 -19 93 18 37 37 41
59 20 111 -19 44 -44 45 -73 2z"/>
<path d="M4249 362 c-25 -25 -49 -89 -49 -128 0 -30 3 -34 26 -34 39 0 94 59
94 102 0 36 -24 78 -43 77 -7 0 -19 -8 -28 -17z"/>
</g>
</svg>
